<svg id="svg" version="1.1" xmlns="http://www.w3.org/2000/svg" xmlns:xlink="http://www.w3.org/1999/xlink" width="400" height="400" viewBox="0, 0, 400,400"><g id="svgg"><path id="path0" d="M127.816 109.863 C 125.787 112.310,121.687 121.488,119.713 128.002 C 117.925 133.899,117.865 133.594,120.827 133.594 L 123.295 133.594 123.748 137.012 C 125.011 146.561,132.625 154.265,142.021 155.502 C 143.986 155.761,151.718 155.868,162.529 155.786 L 179.883 155.655 182.657 154.644 C 189.782 152.050,194.772 146.570,196.847 139.060 C 198.666 132.478,201.581 132.272,202.959 138.629 C 204.708 146.700,210.166 152.581,218.164 155.012 C 220.643 155.765,252.977 156.161,258.002 155.499 C 267.374 154.265,274.990 146.550,276.252 137.012 L 276.705 133.594 278.954 133.594 C 280.192 133.594,281.311 133.421,281.441 133.210 C 282.064 132.202,278.200 121.928,274.350 114.355 L 271.817 109.375 200.019 109.375 C 143.057 109.375,128.137 109.476,127.816 109.863 M182.503 118.274 C 193.526 123.702,193.475 142.406,182.422 147.619 L 180.273 148.633 161.078 148.741 C 142.451 148.846,141.818 148.825,139.710 148.036 C 128.944 144.008,127.259 125.875,137.035 119.261 C 140.550 116.884,140.801 116.859,161.337 116.929 L 179.901 116.992 182.503 118.274 M262.191 118.274 C 273.249 123.720,273.197 142.382,262.109 147.618 L 259.961 148.633 240.970 148.744 C 219.827 148.869,219.926 148.879,216.144 146.098 C 209.452 141.176,208.449 127.965,214.278 121.514 C 218.384 116.968,219.277 116.816,241.220 116.912 L 259.589 116.992 262.191 118.274 M150.716 182.553 C 145.406 184.538,138.662 193.545,141.634 194.685 C 142.944 195.187,184.130 194.935,185.156 194.418 C 185.973 194.007,186.152 193.606,186.248 191.970 C 186.425 188.968,185.967 188.710,176.367 186.395 C 160.866 182.655,153.425 181.541,150.716 182.553 M243.164 182.276 C 235.640 183.352,215.428 188.036,214.391 188.943 C 214.034 189.255,213.630 189.981,213.493 190.556 C 213.356 191.131,213.154 191.906,213.043 192.279 C 212.923 192.683,213.239 193.352,213.825 193.939 L 214.808 194.922 236.040 194.922 C 260.013 194.922,259.101 195.031,258.271 192.259 C 256.482 186.288,249.122 181.424,243.164 182.276 M162.792 204.464 C 152.504 208.135,157.029 223.625,167.645 221.078 C 172.091 220.011,175.138 214.992,173.974 210.651 L 173.740 209.778 172.755 210.553 C 169.310 213.263,163.719 209.258,165.163 205.115 C 165.656 203.701,165.244 203.589,162.792 204.464 M230.218 204.279 C 224.778 205.576,222.131 212.067,225.001 217.072 C 229.309 224.582,241.016 221.415,241.016 212.740 C 241.016 209.966,240.790 209.676,239.323 210.571 C 235.556 212.868,231.312 210.197,231.735 205.795 C 231.835 204.756,231.811 203.924,231.681 203.946 C 231.551 203.968,230.893 204.118,230.218 204.279 M220.939 272.036 C 218.824 275.645,219.237 275.569,200.977 275.708 C 182.207 275.851,181.460 275.729,179.302 272.180 L 178.614 271.049 177.194 272.708 C 174.803 275.502,174.247 278.023,175.536 280.223 C 177.205 283.072,184.498 290.466,183.772 288.573 C 182.978 286.503,193.745 282.417,199.965 282.428 C 206.249 282.438,217.011 286.533,216.214 288.610 C 215.498 290.476,222.032 283.805,224.189 280.467 C 227.152 275.883,227.175 274.893,224.384 272.102 C 222.192 269.910,222.185 269.910,220.939 272.036 " stroke="none" fill="#272c30" fill-rule="evenodd"></path><path id="path1" d="M190.625 70.972 C 175.020 72.619,158.199 79.559,146.069 89.357 C 140.342 93.982,129.575 106.072,128.581 108.992 C 128.496 109.241,153.478 109.375,200.012 109.375 L 271.574 109.375 270.890 108.301 C 254.498 82.547,222.402 67.620,190.625 70.972 M279.073 133.491 L 276.700 133.627 276.250 137.029 C 274.990 146.549,267.366 154.266,258.002 155.499 C 252.977 156.161,220.643 155.765,218.164 155.012 C 210.166 152.581,204.708 146.700,202.959 138.629 C 201.581 132.272,198.666 132.478,196.847 139.060 C 194.772 146.570,189.782 152.050,182.657 154.644 L 179.883 155.655 162.529 155.786 C 151.718 155.868,143.986 155.761,142.021 155.502 C 132.625 154.265,125.011 146.561,123.748 137.012 L 123.295 133.594 120.876 133.594 L 118.457 133.594 117.727 137.793 C 116.548 144.581,116.382 251.790,117.547 254.585 C 118.237 256.242,118.337 257.555,118.464 266.602 C 118.912 298.663,137.593 322.064,167.773 328.367 C 173.124 329.485,229.641 329.494,234.766 328.379 C 261.069 322.651,279.897 302.586,283.569 276.367 C 283.780 274.863,284.076 261.256,284.227 246.129 C 284.495 219.339,284.398 216.480,283.355 220.402 C 283.152 221.163,282.921 205.102,282.783 180.664 C 282.587 145.879,282.460 139.203,281.949 136.719 C 281.618 135.107,281.423 133.657,281.517 133.496 C 281.610 133.335,281.632 133.237,281.566 133.278 C 281.500 133.320,280.378 133.415,279.073 133.491 M264.844 207.535 L 264.844 249.444 262.793 250.687 C 253.826 256.119,245.205 255.073,233.502 247.133 C 221.925 239.279,210.350 239.683,202.850 248.204 L 201.214 250.063 198.947 247.762 C 190.479 239.168,180.094 239.318,167.008 248.224 C 156.489 255.383,147.239 255.898,138.306 249.823 L 135.352 247.813 135.252 206.719 L 135.153 165.625 199.998 165.625 L 264.844 165.625 264.844 207.535 M253.125 185.278 C 253.125 185.346,253.696 185.917,254.395 186.548 L 255.664 187.695 254.517 186.426 C 253.447 185.242,253.125 184.977,253.125 185.278 M221.189 269.672 C 231.742 274.918,228.169 290.350,216.434 290.208 C 214.613 290.186,214.398 290.114,215.114 289.768 C 217.283 288.719,216.431 287.630,211.523 285.180 C 202.879 280.865,191.782 281.786,184.454 287.427 C 183.628 288.062,183.552 289.766,184.372 289.260 C 184.540 289.156,184.894 289.333,185.160 289.653 C 185.903 290.548,183.417 290.402,181.250 289.423 C 172.264 285.364,172.696 272.634,181.933 269.302 C 184.487 268.380,219.250 268.708,221.189 269.672 M179.297 285.352 C 180.026 286.104,180.710 286.719,180.817 286.719 C 180.925 286.719,180.416 286.104,179.688 285.352 C 178.959 284.600,178.274 283.984,178.167 283.984 C 178.060 283.984,178.568 284.600,179.297 285.352 " stroke="none" fill="#84441c" fill-rule="evenodd"></path><path id="path2" d="M0.000 200.000 L 0.000 400.000 200.000 400.000 L 400.000 400.000 400.000 200.000 L 400.000 0.000 200.000 0.000 L 0.000 0.000 0.000 200.000 M212.656 71.284 C 236.975 74.991,257.816 88.161,270.970 108.134 C 275.340 114.770,282.546 131.797,281.803 133.733 C 281.686 134.039,281.805 135.232,282.069 136.383 C 282.420 137.916,282.610 148.350,282.778 175.356 L 283.008 212.236 285.439 212.732 C 306.389 217.005,307.148 247.575,286.426 252.438 L 284.375 252.919 284.375 261.379 C 284.375 288.524,275.833 306.718,257.285 319.075 C 243.069 328.547,237.079 329.683,201.367 329.678 C 168.356 329.673,163.672 329.028,151.544 322.825 C 129.408 311.502,118.002 291.279,117.976 263.309 C 117.967 253.997,117.892 253.780,114.493 253.155 C 92.937 249.187,92.683 217.114,114.173 212.732 L 116.602 212.236 116.830 176.138 C 117.026 145.088,117.146 139.606,117.688 136.941 C 118.035 135.238,118.240 133.716,118.143 133.560 C 117.416 132.383,123.122 117.293,126.213 112.223 C 141.199 87.639,164.658 73.164,193.750 70.549 C 197.131 70.245,208.823 70.700,212.656 71.284 M189.978 133.008 C 189.979 134.727,190.048 135.381,190.130 134.462 C 190.213 133.544,190.212 132.137,190.128 131.337 C 190.044 130.537,189.976 131.289,189.978 133.008 M160.044 200.575 C 143.413 204.045,143.721 221.841,160.463 224.826 C 174.961 227.411,186.707 221.351,185.835 211.734 C 185.049 203.072,173.020 197.867,160.044 200.575 M227.479 200.402 C 216.219 202.428,210.996 211.362,216.538 219.112 C 223.186 228.408,246.579 227.204,251.417 217.317 C 256.607 206.707,243.582 197.503,227.479 200.402 M165.324 205.722 C 164.843 209.994,168.578 212.527,172.449 210.553 C 174.315 209.602,174.295 209.582,174.322 212.419 C 174.401 220.839,164.546 224.696,158.913 218.448 C 154.972 214.077,156.487 207.107,161.914 204.635 C 164.771 203.334,165.565 203.587,165.324 205.722 M231.926 205.371 C 230.817 209.571,235.561 212.835,239.192 210.371 C 240.921 209.197,241.165 209.483,241.155 212.679 C 241.131 220.925,231.073 224.664,225.725 218.415 C 221.866 213.908,223.337 207.074,228.689 204.643 C 231.440 203.394,232.392 203.608,231.926 205.371 M182.093 269.496 C 178.424 270.763,178.721 273.305,182.732 274.967 C 184.953 275.886,217.305 275.356,218.624 274.378 C 221.608 272.166,222.077 269.989,219.723 269.280 C 216.857 268.416,184.685 268.601,182.093 269.496 " stroke="none" fill="#fbfbfb" fill-rule="evenodd"></path><path id="path3" d="M197.559 70.602 C 198.901 70.678,201.099 70.678,202.441 70.602 C 203.784 70.525,202.686 70.463,200.000 70.463 C 197.314 70.463,196.216 70.525,197.559 70.602 M139.453 95.117 C 137.853 96.729,136.631 98.047,136.738 98.047 C 136.846 98.047,138.243 96.729,139.844 95.117 C 141.444 93.506,142.666 92.188,142.559 92.188 C 142.451 92.188,141.054 93.506,139.453 95.117 M259.961 94.922 C 261.453 96.426,262.762 97.656,262.870 97.656 C 262.977 97.656,261.844 96.426,260.352 94.922 C 258.859 93.418,257.550 92.188,257.443 92.188 C 257.335 92.188,258.469 93.418,259.961 94.922 M135.252 206.719 L 135.352 247.813 138.306 249.823 C 147.239 255.898,156.489 255.383,167.008 248.224 C 180.094 239.318,190.479 239.168,198.947 247.762 L 201.214 250.063 202.850 248.204 C 210.350 239.683,221.925 239.279,233.502 247.133 C 245.205 255.073,253.826 256.119,262.793 250.687 L 264.844 249.444 264.844 207.535 L 264.844 165.625 199.998 165.625 L 135.153 165.625 135.252 206.719 M162.695 183.196 C 169.212 184.450,184.599 188.268,185.351 188.819 C 186.448 189.621,186.821 192.578,185.974 193.750 L 185.267 194.727 163.352 194.827 C 141.619 194.928,141.434 194.922,141.009 194.129 C 139.946 192.142,144.771 185.657,149.100 183.253 C 151.801 181.753,155.125 181.739,162.695 183.196 M250.013 183.088 C 255.032 185.588,260.589 193.682,257.976 194.685 C 255.973 195.453,214.447 194.916,213.643 194.111 C 212.810 193.278,212.843 191.047,213.714 189.388 C 214.351 188.174,230.217 184.221,242.188 182.295 C 245.334 181.788,247.935 182.052,250.013 183.088 M175.391 200.987 C 190.519 205.654,189.106 221.797,173.305 224.807 C 156.742 227.963,143.316 218.705,148.908 207.983 C 152.384 201.317,165.355 197.890,175.391 200.987 M242.235 201.077 C 254.527 204.610,256.281 218.013,245.132 223.204 C 236.030 227.441,220.951 225.283,216.538 219.112 C 208.185 207.431,224.503 195.979,242.235 201.077 M114.173 212.731 C 95.452 216.551,92.136 243.319,109.375 251.468 C 111.621 252.529,116.677 253.874,116.906 253.471 C 116.954 253.388,116.904 244.076,116.797 232.778 L 116.602 212.236 114.173 212.731 M282.818 216.948 C 282.823 220.147,282.947 221.490,283.203 221.094 C 283.411 220.771,283.584 220.211,283.588 219.847 C 283.591 219.484,283.799 219.060,284.049 218.905 C 284.394 218.692,284.462 224.977,284.331 244.957 C 284.237 259.439,284.211 267.155,284.274 262.103 L 284.388 252.916 286.433 252.436 C 295.174 250.385,301.953 241.899,301.953 233.008 C 301.953 223.624,294.012 214.126,284.863 212.566 L 282.813 212.216 282.818 216.948 M118.134 263.867 C 118.134 268.379,118.191 270.171,118.260 267.850 C 118.330 265.529,118.329 261.837,118.260 259.647 C 118.190 257.456,118.134 259.355,118.134 263.867 M225.240 278.748 C 223.558 282.016,219.061 287.093,216.128 289.036 L 214.319 290.234 216.465 290.234 C 222.706 290.234,227.459 285.687,227.487 279.688 C 227.507 275.532,227.004 275.322,225.240 278.748 M174.757 280.958 C 175.331 285.619,180.072 290.199,184.354 290.226 L 185.700 290.234 183.919 289.105 C 181.556 287.607,177.835 283.913,176.005 281.250 L 174.528 279.102 174.757 280.958 M133.203 308.716 C 133.203 308.783,133.774 309.354,134.473 309.986 L 135.742 311.133 134.595 309.863 C 133.525 308.680,133.203 308.414,133.203 308.716 M136.719 312.232 C 136.719 312.299,137.290 312.870,137.988 313.501 L 139.258 314.648 138.111 313.379 C 137.041 312.196,136.719 311.930,136.719 312.232 M188.603 329.590 C 195.762 329.649,207.363 329.649,214.384 329.590 C 221.404 329.530,215.547 329.481,201.367 329.481 C 187.188 329.481,181.443 329.530,188.603 329.590 " stroke="none" fill="#ebb37c" fill-rule="evenodd"></path><path id="path4" d="M142.783 117.203 C 142.946 117.467,142.679 117.520,142.025 117.356 C 141.408 117.201,141.016 117.266,141.016 117.524 C 141.016 117.755,140.752 117.843,140.430 117.719 C 140.107 117.596,139.844 117.684,139.844 117.915 C 139.844 118.146,139.587 118.236,139.273 118.116 C 138.944 117.990,138.254 118.368,137.646 119.007 C 137.066 119.618,136.737 119.854,136.915 119.531 C 137.094 119.209,136.436 119.796,135.454 120.836 C 134.472 121.876,133.652 122.799,133.631 122.887 C 133.611 122.975,133.229 123.412,132.782 123.858 C 132.336 124.305,132.070 124.929,132.192 125.246 C 132.333 125.613,132.250 125.721,131.965 125.545 C 131.661 125.357,131.588 125.538,131.738 126.111 C 131.878 126.646,131.808 126.861,131.548 126.700 C 131.284 126.537,131.207 126.813,131.332 127.469 C 131.440 128.032,131.377 128.399,131.194 128.285 C 131.010 128.172,130.859 130.199,130.859 132.789 C 130.859 135.380,131.019 137.500,131.213 137.500 C 131.408 137.500,131.476 137.852,131.363 138.281 C 131.251 138.711,131.350 139.063,131.583 139.063 C 131.816 139.063,131.906 139.326,131.782 139.648 C 131.658 139.971,131.762 140.234,132.013 140.234 C 132.263 140.234,132.359 140.410,132.227 140.625 C 132.094 140.840,132.182 141.016,132.422 141.016 C 132.662 141.016,132.750 141.191,132.617 141.406 C 132.484 141.621,132.562 141.797,132.789 141.797 C 133.017 141.797,133.159 141.960,133.105 142.160 C 133.052 142.360,133.359 142.812,133.789 143.165 C 134.219 143.519,134.307 143.681,133.984 143.525 C 133.662 143.369,134.004 143.884,134.745 144.668 C 136.152 146.159,136.546 146.427,136.122 145.605 C 135.983 145.337,136.233 145.557,136.676 146.094 C 137.120 146.631,137.487 146.905,137.491 146.703 C 137.496 146.500,137.737 146.659,138.027 147.055 C 138.316 147.451,138.756 147.650,139.003 147.498 C 139.251 147.345,139.453 147.424,139.453 147.675 C 139.453 147.926,139.725 148.026,140.059 147.898 C 140.452 147.747,140.568 147.823,140.389 148.113 C 140.201 148.417,140.382 148.490,140.955 148.340 C 141.418 148.219,141.797 148.279,141.797 148.474 C 141.797 148.681,149.686 148.828,160.765 148.828 C 172.011 148.828,179.644 148.684,179.515 148.474 C 179.394 148.279,179.648 148.212,180.078 148.324 C 180.508 148.437,180.859 148.338,180.859 148.105 C 180.859 147.870,181.149 147.792,181.509 147.930 C 181.943 148.097,182.067 148.029,181.880 147.727 C 181.699 147.434,181.808 147.354,182.191 147.502 C 182.545 147.637,183.207 147.282,183.838 146.618 C 184.419 146.007,184.746 145.771,184.565 146.094 C 184.384 146.416,185.014 145.889,185.965 144.922 C 186.915 143.955,187.649 143.032,187.596 142.871 C 187.543 142.710,187.671 142.578,187.881 142.578 C 188.404 142.578,189.540 140.301,189.251 139.832 C 189.122 139.624,189.221 139.453,189.472 139.453 C 189.722 139.453,189.826 139.189,189.702 138.867 C 189.579 138.545,189.604 138.281,189.758 138.281 C 189.913 138.281,190.042 135.835,190.045 132.846 C 190.049 129.856,189.919 127.493,189.757 127.593 C 189.595 127.693,189.559 127.523,189.677 127.214 C 189.947 126.512,188.856 123.828,188.301 123.828 C 188.075 123.828,187.935 123.665,187.988 123.465 C 188.042 123.265,187.734 122.813,187.305 122.460 C 186.875 122.106,186.787 121.944,187.109 122.100 C 187.432 122.256,187.090 121.741,186.349 120.957 C 184.993 119.521,184.380 119.100,185.011 120.038 C 185.198 120.317,185.000 120.163,184.570 119.697 C 183.530 118.570,182.120 117.868,181.572 118.206 C 181.282 118.386,181.238 118.304,181.446 117.968 C 181.682 117.586,181.548 117.511,180.920 117.675 C 180.380 117.817,180.169 117.746,180.334 117.481 C 180.506 117.203,180.177 117.148,179.338 117.316 C 178.556 117.472,178.175 117.422,178.324 117.182 C 178.479 116.931,172.274 116.797,160.547 116.797 C 148.174 116.797,142.611 116.924,142.783 117.203 M221.066 117.322 C 207.419 121.071,206.554 143.085,219.858 148.062 C 221.900 148.826,222.689 148.852,240.970 148.744 L 259.961 148.633 262.109 147.618 C 273.197 142.382,273.249 123.720,262.191 118.274 L 259.589 116.992 241.220 116.912 C 227.477 116.852,222.402 116.955,221.066 117.322 M190.359 132.813 C 190.359 134.209,190.430 134.780,190.517 134.082 C 190.604 133.384,190.604 132.241,190.517 131.543 C 190.430 130.845,190.359 131.416,190.359 132.813 M223.549 212.695 C 223.552 213.770,223.628 214.163,223.718 213.569 C 223.808 212.975,223.805 212.096,223.712 211.616 C 223.620 211.135,223.546 211.621,223.549 212.695 M192.311 275.683 C 196.784 275.746,203.991 275.746,208.327 275.683 C 212.663 275.620,209.004 275.569,200.195 275.569 C 191.387 275.569,187.839 275.621,192.311 275.683 " stroke="none" fill="#94c3e7" fill-rule="evenodd"></path></g></svg>