<?xml version="1.0" standalone="no"?>
<!DOCTYPE svg PUBLIC "-//W3C//DTD SVG 20010904//EN"
 "http://www.w3.org/TR/2001/REC-SVG-20010904/DTD/svg10.dtd">
<svg version="1.0" xmlns="http://www.w3.org/2000/svg"
 width="1024.000000pt" height="1024.000000pt" viewBox="0 0 1024.000000 1024.000000"
 preserveAspectRatio="xMidYMid meet">

<g transform="translate(0.000000,1024.000000) scale(0.100000,-0.100000)"
fill="#000000" stroke="none">
<path d="M4850 8419 c-623 -80 -1163 -402 -1515 -904 -27 -38 -55 -76 -62 -83
-50 -52 -172 -332 -215 -492 -64 -238 -62 -195 -66 -1746 -2 -1310 -1 -1415
14 -1455 14 -36 19 -95 24 -314 6 -246 9 -281 34 -389 70 -302 210 -557 424
-769 220 -219 499 -369 807 -433 83 -18 146 -19 860 -19 712 0 776 1 855 19
457 99 829 365 1052 753 99 171 173 388 198 585 6 50 11 356 13 776 2 652 1
691 -15 655 -15 -36 -16 25 -20 1012 -4 891 -7 1061 -20 1124 -9 40 -13 81
-11 90 6 22 -49 191 -104 321 -107 252 -229 435 -427 638 -342 352 -788 569
-1296 632 -98 12 -434 11 -530 -1z m-178 -1207 c74 -36 133 -95 169 -170 20
-41 24 -66 27 -187 3 -124 1 -146 -18 -197 -28 -76 -104 -159 -178 -195 l-57
-28 -505 0 -505 0 -47 23 c-75 38 -134 96 -170 170 -30 61 -33 76 -37 181 -4
142 9 203 59 279 46 69 111 118 189 143 51 17 95 18 531 16 l475 -2 67 -33z
m2023 9 c81 -33 164 -116 193 -193 44 -117 38 -308 -12 -406 -30 -59 -112
-136 -174 -165 -46 -22 -54 -22 -547 -22 l-500 0 -57 28 c-75 37 -134 98 -172
177 -30 63 -31 70 -30 195 0 110 3 139 22 186 27 67 87 140 146 174 89 52 114
54 611 52 l460 -2 60 -24z m85 -2296 l0 -1074 -62 -35 c-95 -52 -153 -68 -263
-73 -174 -8 -258 22 -477 170 -136 92 -203 122 -311 138 -178 25 -364 -40
-476 -167 l-40 -45 -58 58 c-110 110 -221 156 -378 156 -158 1 -238 -29 -425
-158 -129 -89 -191 -121 -272 -140 -75 -17 -196 -19 -270 -4 -68 14 -180 68
-241 116 l-48 38 -2 1048 -2 1047 1663 0 1662 0 0 -1075z m-1140 -1579 c22 -9
34 -19 34 -30 -3 -34 -50 -87 -98 -111 l-50 -25 -395 0 c-248 0 -410 4 -434
11 -39 11 -117 79 -117 102 0 14 47 45 88 57 15 5 232 8 482 8 346 0 463 -3
490 -12z m184 -266 c-1 -75 -18 -121 -64 -174 -55 -62 -111 -89 -199 -93 l-76
-5 51 35 c79 55 187 178 230 261 45 88 58 82 58 -24z m-1320 -34 c33 -57 136
-161 200 -204 l49 -32 -34 0 c-74 1 -179 73 -220 152 -19 36 -37 128 -26 128
3 0 17 -20 31 -44z"/>
<path d="M3823 5550 c-111 -56 -241 -227 -213 -279 11 -21 12 -21 572 -19
l561 3 18 25 c14 20 16 33 10 68 -5 24 -17 49 -27 57 -21 15 -405 112 -579
145 -60 12 -148 24 -195 27 -81 5 -88 3 -147 -27z"/>
<path d="M6195 5573 c-104 -14 -585 -123 -683 -154 -37 -12 -47 -27 -57 -86
-5 -34 -3 -45 14 -62 21 -21 28 -21 570 -21 302 0 556 3 565 6 67 26 -77 234
-205 298 -52 26 -112 31 -204 19z"/>
<path d="M4180 5011 c-49 -15 -89 -41 -115 -76 -108 -140 -27 -337 148 -361
125 -17 246 90 247 218 0 25 -3 53 -6 62 -5 14 -9 13 -31 -4 -16 -13 -41 -20
-67 -20 -86 0 -149 75 -129 153 11 40 6 44 -47 28z"/>
<path d="M5877 5006 c-95 -34 -147 -109 -147 -213 0 -139 122 -241 259 -218
100 17 181 115 181 219 0 70 -8 80 -45 56 -91 -60 -205 13 -193 124 6 51 4 53
-55 32z"/>
</g>
</svg>
